<svg width="153" height="153" viewBox="0 0 153 153" fill="none" xmlns="http://www.w3.org/2000/svg">
<rect width="153" height="153" rx="20" fill="#191919"/>
<path d="M54.2615 34.0437C57.08 33.46 59.8545 33.0488 62.6506 32.7439C67.8366 32.1784 73.0382 31.918 78.2477 32.0227C82.4141 32.1065 86.5793 32.3099 90.7317 32.7483C95.7283 33.2757 100.649 34.0944 105.459 35.6168C110.124 37.0934 113.659 39.8573 116.132 44.0778C117.948 47.1788 119.843 50.2406 121.22 53.5646C121.854 55.0954 122.828 55.7848 124.436 55.9227C128.348 56.2583 130.837 58.4806 132.264 62.0417C133.832 65.9549 134.803 70.0249 135.488 74.1715C135.926 76.818 136.277 79.4822 136.256 82.1629C136.217 87.137 135.471 92.0019 133.562 96.6332C132.255 99.8033 130.064 102.126 126.846 103.417C126.305 103.634 125.895 103.93 125.727 104.551C123.265 113.671 117.383 119.389 108.349 121.937C105.251 122.811 102.064 123.214 98.8779 123.62C95.5325 124.046 92.1684 124.256 88.8105 124.539C87.7512 124.629 86.6855 124.646 85.6256 124.687C80.999 124.868 76.3687 125.02 71.7381 124.841C67.7028 124.685 63.6632 124.534 59.6502 124.073C54.4106 123.471 49.1434 122.986 44.0787 121.371C39.7065 119.976 35.7495 117.885 32.5657 114.489C30.0587 111.814 28.5293 108.633 27.7357 105.099C27.4891 104.001 27.0092 103.444 25.9264 103.087C22.819 102.06 20.8035 99.8072 19.6095 96.837C18.2047 93.3421 17.4608 89.6806 17.1567 85.929C16.4988 77.8148 17.9558 70.0153 20.7159 62.4236C21.4588 60.3801 22.4677 58.4712 24.445 57.3006C25.808 56.4938 27.342 56.2511 28.8713 56.1221C29.9187 56.0337 30.5073 55.547 30.9471 54.6612C32.6176 51.2965 34.6035 48.1207 36.6338 44.9604C40.0918 39.5781 45.0338 36.4232 51.1109 34.8417C52.1378 34.5745 53.1663 34.3134 54.2615 34.0437ZM61.1734 116.99C62.5389 117.254 63.9301 117.159 65.3064 117.241C69.4775 117.486 73.6588 117.42 77.8367 117.455C82.3091 117.493 86.7747 117.308 91.2375 117.092C94.9459 116.913 98.6457 116.542 102.315 115.966C104.725 115.588 107.138 115.155 109.392 114.149C113.935 112.121 116.814 108.563 118.591 104.026C120.695 98.6569 121.249 93.0108 121.464 87.3164C121.536 85.4302 121.432 83.5414 121.344 81.6523C121.222 78.9957 120.95 76.3592 120.452 73.7557C119.354 68.0274 117.666 62.4679 115.387 57.0974C113.681 53.0749 111.775 49.1531 109.158 45.621C107.24 43.0307 104.797 41.2778 101.605 40.4954C95.7476 39.0593 89.7841 38.439 83.7924 38.192C77.8683 37.9478 71.9342 37.9927 66.017 38.6026C62.215 38.9946 58.4237 39.4297 54.6834 40.2323C51.8406 40.8424 49.064 41.6445 46.554 43.1739C43.3251 45.1413 41.2331 48.1047 39.4855 51.3466C37.0398 55.8837 35.324 60.7172 33.7727 65.6164C31.4568 72.9305 30.2135 80.4113 30.2107 88.0905C30.2096 91.0691 30.4027 94.0361 30.8587 96.9783C31.4105 100.538 32.2933 104.005 34.0664 107.183C36.2049 111.015 39.3346 113.622 43.6166 114.731C49.3223 116.209 55.1636 116.672 61.1734 116.99Z" fill="white"/>
<path d="M87.153 54.5079C89.4468 54.7185 91.6688 54.8906 93.8824 55.1381C98.4702 55.651 103.039 56.2708 107.44 57.7677C108.668 58.1854 109.561 58.9383 110.191 60.0517C112.41 63.9699 113.887 68.1663 114.869 72.5451C115.705 76.2716 115.986 80.056 115.819 83.8609C115.58 89.3005 114.727 94.631 112.605 99.6931C111.929 101.306 111.059 102.777 109.537 103.777C108.243 104.627 106.762 104.831 105.302 105.059C100.819 105.758 96.3085 106.204 91.7823 106.556C85.0345 107.079 78.2797 107.099 71.5271 106.956C67.3621 106.868 63.1996 106.506 59.044 106.169C55.4243 105.875 51.8148 105.453 48.203 105.068C47.2033 104.961 46.2148 104.75 45.2152 104.643C43.6339 104.474 42.6075 103.536 41.8196 102.265C40.2437 99.7229 39.4097 96.8989 38.7303 94.0186C37.898 90.4894 37.5056 86.8994 37.5342 83.2866C37.6034 74.5238 39.9345 66.4584 45.2224 59.3596C46.6681 57.4188 48.6072 56.3642 51.0129 56.0858C53.8805 55.754 56.7333 55.2773 59.6064 55.0153C62.2206 54.7769 64.8432 54.6011 67.4683 54.4606C71.295 54.2559 75.1203 54.1162 78.9499 54.1889C81.6601 54.2404 84.3683 54.395 87.153 54.5079ZM97.5351 68.8786C95.1375 66.5138 91.5884 66.1652 89.0305 68.0836C87.0892 69.5396 86.1661 71.5567 86.1367 73.9419C86.0887 77.8253 86.1281 81.7097 86.1189 85.5937C86.1172 86.2865 86.1668 86.9681 86.2851 87.6513C86.9977 91.7674 91.3158 94.2622 95.1748 92.7783C97.7261 91.7971 99.5753 89.1528 99.5864 86.403C99.6029 82.2797 99.6001 78.1562 99.5888 74.0329C99.5835 72.0952 98.9381 70.3919 97.5351 68.8786ZM53.8495 79.0683C53.8497 81.3837 53.8553 83.6991 53.8463 86.0145C53.8441 86.6017 53.8953 87.1761 54.0138 87.7525C54.8392 91.7666 58.7225 94.1656 62.4802 92.9723C65.0738 92.1487 67.1377 89.4552 67.16 86.7234C67.1958 82.3326 67.1661 77.9412 67.1737 73.5501C67.1746 73.0657 67.1043 72.5979 66.9873 72.1338C66.0445 68.3942 62.4854 66.1859 58.8244 67.0667C56.0497 67.7343 53.8929 70.5021 53.8562 73.4794C53.8339 75.2889 53.8505 77.0988 53.8495 79.0683Z" fill="white"/>
</svg>
