<svg width="153" height="153" viewBox="0 0 153 153" fill="none" xmlns="http://www.w3.org/2000/svg">
<path d="M53.2615 32.0437C56.08 31.46 58.8545 31.0488 61.6506 30.7439C66.8366 30.1784 72.0382 29.918 77.2477 30.0227C81.4141 30.1065 85.5793 30.3099 89.7317 30.7483C94.7283 31.2757 99.6494 32.0944 104.459 33.6168C109.124 35.0934 112.659 37.8573 115.132 42.0778C116.948 45.1788 118.843 48.2406 120.22 51.5646C120.854 53.0954 121.828 53.7848 123.436 53.9227C127.348 54.2583 129.837 56.4806 131.264 60.0417C132.832 63.9549 133.803 68.0249 134.488 72.1715C134.926 74.818 135.277 77.4822 135.256 80.1629C135.217 85.137 134.471 90.0019 132.562 94.6332C131.255 97.8033 129.064 100.126 125.846 101.417C125.305 101.634 124.895 101.93 124.727 102.551C122.265 111.671 116.383 117.389 107.349 119.937C104.251 120.811 101.064 121.214 97.8779 121.62C94.5325 122.046 91.1684 122.256 87.8105 122.539C86.7512 122.629 85.6855 122.646 84.6256 122.687C79.999 122.868 75.3687 123.02 70.7381 122.841C66.7028 122.685 62.6632 122.534 58.6502 122.073C53.4106 121.471 48.1434 120.986 43.0787 119.371C38.7065 117.976 34.7495 115.885 31.5657 112.489C29.0587 109.814 27.5293 106.633 26.7357 103.099C26.4891 102.001 26.0092 101.444 24.9264 101.087C21.819 100.06 19.8035 97.8072 18.6095 94.837C17.2047 91.3421 16.4608 87.6806 16.1567 83.929C15.4988 75.8148 16.9558 68.0153 19.7159 60.4236C20.4588 58.3801 21.4677 56.4712 23.445 55.3006C24.808 54.4938 26.342 54.2511 27.8713 54.1221C28.9187 54.0337 29.5073 53.547 29.9471 52.6612C31.6176 49.2965 33.6035 46.1207 35.6338 42.9604C39.0918 37.5781 44.0338 34.4232 50.1109 32.8417C51.1378 32.5745 52.1663 32.3134 53.2615 32.0437ZM60.1734 114.99C61.5389 115.254 62.9301 115.159 64.3064 115.241C68.4775 115.486 72.6588 115.42 76.8367 115.455C81.3091 115.493 85.7747 115.308 90.2375 115.092C93.9459 114.913 97.6457 114.542 101.315 113.966C103.725 113.588 106.138 113.155 108.392 112.149C112.935 110.121 115.814 106.563 117.591 102.026C119.695 96.6569 120.249 91.0108 120.464 85.3164C120.536 83.4302 120.432 81.5414 120.344 79.6523C120.222 76.9957 119.95 74.3592 119.452 71.7557C118.354 66.0274 116.666 60.4679 114.387 55.0974C112.681 51.0749 110.775 47.1531 108.158 43.621C106.24 41.0307 103.797 39.2778 100.605 38.4954C94.7476 37.0593 88.7841 36.439 82.7924 36.192C76.8683 35.9478 70.9342 35.9927 65.017 36.6026C61.215 36.9946 57.4237 37.4297 53.6834 38.2323C50.8406 38.8424 48.064 39.6445 45.554 41.1739C42.3251 43.1413 40.2331 46.1047 38.4855 49.3466C36.0398 53.8837 34.324 58.7172 32.7727 63.6164C30.4568 70.9305 29.2135 78.4113 29.2107 86.0905C29.2096 89.0691 29.4027 92.0361 29.8587 94.9783C30.4105 98.538 31.2933 102.005 33.0664 105.183C35.2049 109.015 38.3346 111.622 42.6166 112.731C48.3223 114.209 54.1636 114.672 60.1734 114.99Z" fill="#191919"/>
<path d="M86.153 52.5079C88.4468 52.7185 90.6688 52.8906 92.8824 53.1381C97.4702 53.651 102.039 54.2708 106.44 55.7677C107.668 56.1854 108.561 56.9383 109.191 58.0517C111.41 61.9699 112.887 66.1663 113.869 70.5451C114.705 74.2716 114.986 78.056 114.819 81.8609C114.58 87.3005 113.727 92.631 111.605 97.6931C110.929 99.3063 110.059 100.777 108.537 101.777C107.243 102.627 105.762 102.831 104.302 103.059C99.8192 103.758 95.3085 104.204 90.7823 104.556C84.0345 105.079 77.2797 105.099 70.5271 104.956C66.3621 104.868 62.1996 104.506 58.044 104.169C54.4243 103.875 50.8148 103.453 47.203 103.068C46.2033 102.961 45.2148 102.75 44.2152 102.643C42.6339 102.474 41.6075 101.536 40.8196 100.265C39.2437 97.7229 38.4097 94.8989 37.7303 92.0186C36.898 88.4894 36.5056 84.8994 36.5342 81.2866C36.6034 72.5238 38.9345 64.4584 44.2224 57.3596C45.6681 55.4188 47.6072 54.3642 50.0129 54.0858C52.8805 53.754 55.7333 53.2773 58.6064 53.0153C61.2206 52.7769 63.8432 52.6011 66.4683 52.4606C70.295 52.2559 74.1203 52.1162 77.9499 52.1889C80.6601 52.2404 83.3683 52.395 86.153 52.5079ZM96.5351 66.8786C94.1375 64.5138 90.5884 64.1652 88.0305 66.0836C86.0892 67.5396 85.1661 69.5567 85.1367 71.9419C85.0887 75.8253 85.1281 79.7097 85.1189 83.5937C85.1172 84.2865 85.1668 84.9681 85.2851 85.6513C85.9976 89.7674 90.3158 92.2623 94.1748 90.7783C96.7261 89.7971 98.5753 87.1528 98.5864 84.403C98.6029 80.2797 98.6001 76.1562 98.5888 72.0329C98.5835 70.0952 97.9381 68.3919 96.5351 66.8786ZM52.8495 77.0683C52.8497 79.3837 52.8553 81.6991 52.8463 84.0145C52.8441 84.6017 52.8953 85.1761 53.0138 85.7525C53.8392 89.7666 57.7225 92.1656 61.4801 90.9723C64.0738 90.1487 66.1377 87.4552 66.16 84.7234C66.1958 80.3326 66.1661 75.9413 66.1738 71.5501C66.1746 71.0657 66.1043 70.5979 65.9873 70.1338C65.0445 66.3942 61.4854 64.1859 57.8244 65.0667C55.0497 65.7343 52.8929 68.5021 52.8562 71.4794C52.8339 73.2889 52.8505 75.0988 52.8495 77.0683Z" fill="#191919"/>
</svg>
