<svg width="491" height="775" viewBox="0 0 491 775" fill="none" xmlns="http://www.w3.org/2000/svg">
<path d="M321.147 521.074C281.701 521.195 242.253 521.591 202.811 521.263C191.446 521.169 182.506 524.864 175.469 533.288C160.795 550.855 146.37 568.628 131.81 586.291C127.754 591.212 124.7 596.616 124.285 603.07C124.002 607.47 124.534 611.92 124.281 616.323C124.082 619.79 124.807 623.013 125.734 626.244C128.294 635.163 138.599 642.627 147.865 642.486C154.503 642.386 161.144 642.435 167.783 642.515C169.078 642.531 170.683 642.006 171.667 643.791C171.291 644.146 170.971 644.547 170.565 644.817C159.843 651.949 149.099 659.049 138.398 666.213C137.133 667.06 135.888 667.388 134.391 667.372C123.718 667.26 113.044 667.181 102.37 667.154C97.2216 667.141 92.3597 668.283 87.741 670.692C77.8156 675.869 71.1273 684.196 66.672 693.992C60.1817 708.264 59.4044 723.351 63.6085 738.463C69.4335 759.402 84.398 775.144 109.071 773.59C117.593 773.054 126.11 773.637 134.696 772.622C141.87 771.773 148.143 769.844 153.653 765.499C164.679 756.804 171.001 745.338 172.876 731.437C175.568 711.481 171.758 693.457 157.087 678.688C156.464 678.061 155.692 677.484 155.768 676.364C156.731 675.183 157.926 674.239 159.248 673.376C167.635 667.904 176.077 662.507 184.294 656.787C186.937 654.947 188.267 655.238 189.816 657.846C193.554 664.136 199.209 666.667 206.483 666.575C221.713 666.384 236.947 666.49 252.18 666.47C255.841 666.465 260.429 672.926 261.778 676.364C257.201 675.148 249.449 673.115 244.981 673.632C237.797 674.464 233.154 671.955 225.841 673.632C217.469 675.551 216.123 675.195 210.607 681.246C203.166 689.407 193.221 701.709 191.857 712.886C189.999 728.107 192.354 742.11 200.841 755.073C208.702 767.079 219.06 772.443 233.653 772.501C242.376 772.535 250.191 773.08 258.89 772.622C265.698 772.263 272.643 771.189 278.965 767.963C290.989 753.36 287.558 751.274 296.933 733.979C297.495 731.246 305.444 729.221 307.403 727.315C315.212 719.716 316.521 708.991 310.359 700.06C304.864 692.096 297.2 686.084 290.306 679.4C286.092 675.315 281.668 671.446 277.249 667.398C278.941 666.072 280.283 666.545 281.532 666.537C292.858 666.464 304.185 666.352 315.51 666.425C320.274 666.456 323.647 664.15 326.458 660.709C328.018 658.798 329.543 656.815 330.764 654.681C332.452 651.733 334.366 651.933 336.824 653.602C346.727 660.323 356.633 667.041 366.623 673.632C369.104 675.269 369.42 676.516 367.231 678.713C360.513 685.456 356.504 694.051 354.274 702.903C350.361 718.435 351.209 733.922 358.528 748.732C366.574 765.014 379.329 773.544 397.548 773.534C407.254 773.529 416.951 773.874 426.659 772.501C431.097 771.873 435.48 771.463 439.358 769.236C457.158 759.015 463.997 745.474 464.899 725.776C465.482 713.034 465.386 702.796 458.258 691.792C450.473 679.773 438.346 667.559 423.713 667.232C412.154 666.973 400.583 667.252 389.018 667.329C387.471 667.34 386.325 666.625 385.12 665.8C378.787 661.461 372.388 657.218 366.07 652.857C361.945 650.009 357.92 647.017 353.657 643.951C355.34 642.275 356.955 642.538 358.447 642.528C364.826 642.484 371.205 642.504 377.585 642.483C382.635 642.467 387.629 642.618 392.595 640.937C402.463 637.598 408.53 628.411 408.442 620.205C408.193 596.771 408.432 573.34 408.299 549.908C408.237 538.825 403.162 530.574 393.681 524.896C388.15 521.583 382.081 521.299 375.927 521.45C372.62 521.532 371.424 520.317 371.503 516.832C371.728 506.812 371.572 496.784 371.538 486.759C371.522 481.77 371.68 481.556 376.839 481.546C386.864 481.528 396.89 481.607 406.914 481.534C412.663 481.492 415.721 478.253 415.724 472.434C415.726 467.753 415.692 463.072 415.617 458.392C415.541 453.563 412.056 449.951 407.67 450.027C377.341 450.55 347.012 450.58 316.683 450.003C311.511 449.904 308.089 452.63 307.852 457.736C307.598 463.193 307.593 468.679 307.855 474.135C308.102 479.259 311.169 481.713 316.318 481.679C326.213 481.615 336.107 481.623 346.002 481.594C352.57 481.575 352.569 481.57 352.337 487.717C352.327 487.975 352.383 488.235 352.392 488.495C352.789 499.238 352.664 509.979 352.216 521.074C342.146 521.074 332.038 521.074 321.147 521.074Z" fill="#B64918"/>
<path d="M388.133 604.317C388.113 607.83 388.196 610.958 388.052 614.075C387.765 620.314 385.422 622.666 379.102 622.892C367.579 623.305 356.053 623.79 344.526 623.882C331.919 623.983 319.292 624.033 306.705 623.447C291.983 622.762 277.307 621.218 262.679 619.372C257.029 618.659 255.188 614.803 257.753 608.958C261.567 600.27 265.596 591.676 269.558 583.054C273.943 573.513 278.491 564.044 282.709 554.43C285.669 547.681 290.303 544.683 297.877 544.758C324.16 545.016 350.448 544.824 376.735 544.779C385.123 544.765 388.118 547.513 388.159 555.911C388.237 571.916 388.151 587.921 388.133 604.317ZM347.213 591.77C346.808 598.86 350.109 604.051 355.763 605.214C361.586 606.412 366.332 603.195 368.219 595.695C369.74 589.651 369.407 583.308 368.32 577.168C367.884 574.702 367.18 572.082 365.433 570C362.74 566.792 358.233 565.442 354.519 566.789C350.363 568.298 347.071 573.302 347.081 578.203C347.089 582.493 347.169 586.784 347.213 591.77ZM319.797 576.091C319.632 575.599 319.465 575.107 319.303 574.614C317.451 568.948 313.606 566.005 308.518 566.358C303.884 566.68 300.018 570.789 299.096 576.266C297.984 582.871 298.473 589.479 299.245 596.043C299.863 601.292 303.904 604.845 308.883 605.135C313.453 605.401 318.104 602.244 319.195 597.844C320.925 590.863 320.839 583.769 319.797 576.091Z" fill="#2F140E"/>
<path d="M254.207 671.789C260.289 671.834 266.412 672.806 271.761 675.699C289.552 685.322 298.616 700.89 298.616 723.956C298.616 748.552 287.408 766.006 267.137 774.28L228.724 774.973L219.028 773.448C202.065 764.646 190.685 746.464 190.685 723.956C190.685 700.165 210.155 680.48 228.724 671.598L254.207 671.789Z" fill="#9E360C"/>
<path d="M265.789 723.193C265.789 751.688 248.345 774.973 227.605 774.973C206.866 774.973 190.685 751.688 190.685 723.193C190.685 694.698 207.498 671.598 228.237 671.598C248.976 671.598 265.789 694.698 265.789 723.193Z" fill="#B64918"/>
<ellipse cx="228.734" cy="723.702" rx="18.1542" ry="26.1788" fill="#34130C"/>
<path d="M128.318 667.124C134.275 667.168 140.264 668.111 145.554 670.849C164.583 680.699 174.279 696.749 174.279 720.641C174.279 745.877 162.516 763.784 141.24 772.273L100.924 772.984L90.7473 771.42C72.9443 762.389 61 743.735 61 720.641C61 696.233 81.4348 676.036 100.924 666.924L128.318 667.124Z" fill="#9E360C"/>
<path d="M139.826 719.86C139.826 749.095 121.517 772.984 99.7498 772.984C77.9827 772.984 61 749.095 61 719.86C61 690.624 78.6457 666.924 100.413 666.924C122.18 666.924 139.826 690.624 139.826 719.86Z" fill="#B64918"/>
<ellipse cx="100.935" cy="720.381" rx="19.0539" ry="26.8588" fill="#34130C"/>
<path d="M419.101 667.126C425.117 667.171 431.168 668.131 436.493 670.931C455.31 680.825 464.899 696.922 464.899 720.858C464.899 746.195 453.217 764.173 432.088 772.697L392.05 773.41L381.943 771.84C364.263 762.773 352.401 744.044 352.401 720.858C352.401 696.352 372.695 676.075 392.05 666.926L419.101 667.126Z" fill="#9E360C"/>
<path d="M430.683 720.073C430.683 749.425 412.5 773.41 390.883 773.41C369.266 773.41 352.401 749.425 352.401 720.073C352.401 690.721 369.925 666.926 391.542 666.926C413.159 666.926 430.683 690.721 430.683 720.073Z" fill="#B64918"/>
<ellipse cx="392.06" cy="720.597" rx="18.9225" ry="26.9663" fill="#34130C"/>
<rect y="130" width="112" height="112" rx="56" transform="rotate(-30 0 130)" fill="white" fill-opacity="0.02"/>
<g clip-path="url(#clip0_572_1302)">
<path d="M74.4018 125.534C73.2973 123.621 70.8509 122.966 68.9377 124.07C67.0246 125.175 66.3691 127.621 67.4736 129.534L74.1403 141.081C75.2449 142.995 77.6912 143.65 79.6044 142.546C81.5176 141.441 82.1731 138.995 81.0685 137.081L74.4018 125.534Z" stroke="#FBA366" stroke-width="5" stroke-linecap="round" stroke-linejoin="round"/>
<path d="M87.9966 133.081L89.9966 136.545L93.4607 134.545C94.1458 134.15 94.6983 133.56 95.0482 132.85C95.3981 132.141 95.5297 131.344 95.4265 130.559C95.3232 129.775 94.9897 129.039 94.468 128.444C93.9464 127.849 93.2601 127.422 92.496 127.218C91.7318 127.013 90.9241 127.039 90.1749 127.294C89.4258 127.548 88.7689 128.019 88.2873 128.646C87.8057 129.274 87.521 130.03 87.4693 130.82C87.4175 131.609 87.601 132.396 87.9966 133.081Z" stroke="#FBA366" stroke-width="5" stroke-linecap="round" stroke-linejoin="round"/>
<path d="M78.8547 159.914C77.7501 158.001 75.3038 157.345 73.3906 158.45C71.4774 159.554 70.8219 162.001 71.9265 163.914L78.5932 175.461C79.6978 177.374 82.1441 178.029 84.0573 176.925C85.9705 175.82 86.626 173.374 85.5214 171.461L78.8547 159.914Z" stroke="#FBA366" stroke-width="5" stroke-linecap="round" stroke-linejoin="round"/>
<path d="M64.9983 167.914L62.9983 164.45L59.5342 166.45C58.849 166.845 58.2966 167.435 57.9467 168.145C57.5968 168.854 57.4651 169.652 57.5684 170.436C57.6717 171.22 58.0052 171.956 58.5268 172.551C59.0484 173.146 59.7347 173.573 60.4989 173.778C61.2631 173.982 62.0708 173.956 62.8199 173.702C63.5691 173.447 64.226 172.976 64.7076 172.349C65.1892 171.721 65.4739 170.965 65.5256 170.175C65.5773 169.386 65.3938 168.599 64.9983 167.914Z" stroke="#FBA366" stroke-width="5" stroke-linecap="round" stroke-linejoin="round"/>
<path d="M97.4608 141.473L85.9138 148.14C84.0006 149.245 83.3451 151.691 84.4497 153.604C85.5543 155.517 88.0006 156.173 89.9138 155.068L101.461 148.402C103.374 147.297 104.029 144.851 102.925 142.938C101.82 141.024 99.374 140.369 97.4608 141.473Z" stroke="#FBA366" stroke-width="5" stroke-linecap="round" stroke-linejoin="round"/>
<path d="M93.9138 161.997L90.4497 163.997L92.4497 167.461C92.8453 168.146 93.4351 168.698 94.1447 169.048C94.8542 169.398 95.6516 169.53 96.4359 169.426C97.2203 169.323 97.9564 168.99 98.5512 168.468C99.146 167.946 99.5728 167.26 99.7775 166.496C99.9823 165.732 99.9558 164.924 99.7015 164.175C99.4472 163.426 98.9765 162.769 98.3489 162.287C97.7212 161.806 96.9649 161.521 96.1754 161.469C95.386 161.418 94.5989 161.601 93.9138 161.997Z" stroke="#FBA366" stroke-width="5" stroke-linecap="round" stroke-linejoin="round"/>
<path d="M63.0812 145.927L51.5342 152.593C49.621 153.698 48.9655 156.144 50.0701 158.057C51.1746 159.971 53.621 160.626 55.5342 159.521L67.0812 152.855C68.9943 151.75 69.6498 149.304 68.5453 147.391C67.4407 145.478 64.9943 144.822 63.0812 145.927Z" stroke="#FBA366" stroke-width="5" stroke-linecap="round" stroke-linejoin="round"/>
<path d="M59.0813 138.999L62.5454 136.999L60.5454 133.534C60.1498 132.849 59.56 132.297 58.8504 131.947C58.1409 131.597 57.3435 131.465 56.5592 131.569C55.7748 131.672 55.0387 132.005 54.4439 132.527C53.8491 133.049 53.4223 133.735 53.2176 134.499C53.0128 135.263 53.0393 136.071 53.2936 136.82C53.5479 137.569 54.0186 138.226 54.6462 138.708C55.2739 139.189 56.0302 139.474 56.8197 139.526C57.6091 139.578 58.3962 139.394 59.0813 138.999Z" stroke="#FBA366" stroke-width="5" stroke-linecap="round" stroke-linejoin="round"/>
</g>
<line x1="107.899" y1="201.655" x2="239.14" y2="433.033" stroke="url(#paint0_linear_572_1302)" stroke-width="1.2"/>
<rect x="97" y="23.2861" width="112" height="112" rx="56" transform="rotate(-12 97 23.2861)" fill="white" fill-opacity="0.02"/>
<g clip-path="url(#clip1_572_1302)">
<path d="M186.731 47.8333L166.454 67.7564C165.757 68.3878 164.904 68.8234 163.984 69.0191C163.064 69.2147 162.108 69.1633 161.214 68.8703L134.563 58.9219" stroke="#FBA366" stroke-width="5" stroke-linecap="round" stroke-linejoin="round"/>
<path d="M179.851 41.1169L138.117 49.9878C135.236 50.6002 133.396 53.4323 134.009 56.3135L140.662 87.6142C141.274 90.4953 144.106 92.3345 146.988 91.7221L188.722 82.8512C191.603 82.2388 193.442 79.4067 192.83 76.5256L186.177 45.2248C185.564 42.3437 182.732 40.5045 179.851 41.1169Z" stroke="#FBA366" stroke-width="5" stroke-linecap="round" stroke-linejoin="round"/>
</g>
<line x1="175.155" y1="121.174" x2="242.258" y2="432.015" stroke="url(#paint1_linear_572_1302)" stroke-width="1.2"/>
<rect x="277.146" y="10" width="112" height="112" rx="56" transform="rotate(12 277.146 10)" fill="white" fill-opacity="0.02"/>
<g clip-path="url(#clip2_572_1302)">
<path d="M322.56 104.167L324.777 93.733C325.835 90.5425 325.595 87.0642 324.11 84.0492C331.935 85.7125 340.869 82.159 342.809 73.0296C343.711 69.8135 343.48 66.4111 342.141 63.3458C343.509 60.5014 344.175 57.3713 344.082 54.2164C344.082 54.2164 341.474 53.662 335.425 56.4657C328.816 53.6978 321.721 52.1898 314.558 52.0303C310.173 47.0088 307.564 46.4544 307.564 46.4544C306.144 49.2877 305.479 52.4178 305.624 55.5837C303.161 57.8299 301.554 60.8603 301.075 64.1587C299.135 73.2881 305.851 80.1681 313.676 81.8314C312.387 82.8933 311.32 84.1932 310.544 85.664C309.768 87.1348 309.288 88.7504 309.127 90.4064L306.909 100.84" stroke="#FBA366" stroke-width="5" stroke-linecap="round" stroke-linejoin="round"/>
<path d="M309.127 90.4064C296.254 93.1227 297.194 82.4175 291.977 81.3086" stroke="#FBA366" stroke-width="5" stroke-linecap="round" stroke-linejoin="round"/>
</g>
<line x1="244.189" y1="431.506" x2="308.049" y2="131.071" stroke="url(#paint2_linear_572_1302)" stroke-width="1.2"/>
<rect x="394.004" y="67" width="112" height="112" rx="56" transform="rotate(30 394.004 67)" fill="white" fill-opacity="0.02"/>
<g clip-path="url(#clip3_572_1302)">
<path d="M442.667 132.046L410.335 113.38C407.784 111.907 404.523 112.781 403.05 115.332L384.383 147.663C382.91 150.214 383.784 153.476 386.335 154.949L418.667 173.615C421.218 175.088 424.48 174.214 425.952 171.663L444.619 139.332C446.092 136.781 445.218 133.519 442.667 132.046Z" stroke="#FBA366" stroke-width="5" stroke-linecap="round" stroke-linejoin="round"/>
<path d="M399.93 147.402L410.597 128.927L414.501 143.498L429.072 139.593L418.405 158.069" stroke="#FBA366" stroke-width="5" stroke-linecap="round" stroke-linejoin="round"/>
</g>
<line x1="246.978" y1="432.456" x2="385.981" y2="191.695" stroke="url(#paint3_linear_572_1302)" stroke-width="1.2"/>
<defs>
<linearGradient id="paint0_linear_572_1302" x1="106.942" y1="202.198" x2="238.183" y2="433.576" gradientUnits="userSpaceOnUse">
<stop stop-color="#B64918"/>
<stop offset="1" stop-color="#50200A"/>
</linearGradient>
<linearGradient id="paint1_linear_572_1302" x1="174.08" y1="121.406" x2="241.183" y2="432.247" gradientUnits="userSpaceOnUse">
<stop stop-color="#B64918"/>
<stop offset="1" stop-color="#50200A"/>
</linearGradient>
<linearGradient id="paint2_linear_572_1302" x1="309.125" y1="131.299" x2="245.265" y2="431.735" gradientUnits="userSpaceOnUse">
<stop offset="0.173538" stop-color="#B64918"/>
<stop offset="0.960708" stop-color="#50200A"/>
</linearGradient>
<linearGradient id="paint3_linear_572_1302" x1="317.682" y1="312.193" x2="265" y2="403" gradientUnits="userSpaceOnUse">
<stop stop-color="#B64918"/>
<stop offset="1" stop-color="#50200A"/>
</linearGradient>
<clipPath id="clip0_572_1302">
<rect width="64" height="64" fill="white" transform="translate(32.7847 138.785) rotate(-30)"/>
</clipPath>
<clipPath id="clip1_572_1302">
<rect width="64" height="64" fill="white" transform="translate(125.465 41.772) rotate(-12)"/>
</clipPath>
<clipPath id="clip2_572_1302">
<rect width="64" height="64" fill="white" transform="translate(295.631 38.4653) rotate(12)"/>
</clipPath>
<clipPath id="clip3_572_1302">
<rect width="64" height="64" fill="white" transform="translate(402.788 99.7847) rotate(30)"/>
</clipPath>
</defs>
</svg>
